<svg viewBox="0 0 70.02 65.01" xmlns="http://www.w3.org/2000/svg"><linearGradient id="a" gradientTransform="matrix(1 0 0 -1 0 66)" gradientUnits="userSpaceOnUse" x1="36.07" x2="57.34" y1="22.84" y2="10.56"><stop offset=".75" stop-color="#a85800"/><stop offset=".75" stop-color="#d26e00"/></linearGradient><linearGradient id="b" gradientTransform="matrix(1 0 0 -1 0 66)" gradientUnits="userSpaceOnUse" x1="14.36" x2="47.9" y1="27.86" y2="50.59"><stop offset=".5" stop-color="#f1a100"/><stop offset=".5" stop-color="#f3c700"/></linearGradient><ellipse cx="46.7" cy="49.3" fill="url(#a)" rx="12.2" ry="12.3"/><path d="M70 31.7c-.6-2-3.3-2.7-6.9-4-3.6-1-8.9-2.6-11.2-6.3L44.3 9.9C37.8 0 24.9-3 15.4 3.3S3.9 22.7 10.8 32.6l7.6 11.5C20.7 47.7 20 53 19.7 57c-.3 3.6-.3 6.3 2 7.6 2 1 4 0 5.9-1.3l39.1-26.7c1-.7 3.6-2.3 3.3-4.9z" fill="url(#b)"/><path d="M.3 35.9 0 38.1l6.8.4.4-2.2zm8.4 5.9-5.4 5.1 1.4 1.7 5.5-5.1zm3.6 5.7-1.2 7.1 2.1.3 1.2-7.1zm46.2-30.7-.2 2.2h7.1l.1-2.2zm1.7-9.9-5.3 5.2 1.5 1.6 5.3-5.2zm-8.7-5.8L50 8l2.2.4 1.5-6.9z" fill="#e74c3d"/></svg>