<svg id="Lines" xmlns="http://www.w3.org/2000/svg" viewBox="0 0 1385.63 253.58"><defs><style>.cls-1{fill:#fff}</style></defs><path class="cls-1" d="M0 0v253.58h1385.63V0H0Z"/><path d="M13.58 13.58h215.09v226.41H13.58z"/><path class="cls-1" d="M126.37 205.29c-44.33 0-67.96-32.78-67.96-77.01 0-48.05 28.11-76.97 68.16-76.97 36.67 0 51.16 15.76 61.4 43.88l-37.52 14.77c-5.33-13.91-10.44-22.68-24.08-22.68-17.28 0-24.74 17.33-24.74 41.01s7.25 41.04 25.17 41.04c12.99 0 18.54-7.05 26.64-21.17l34.94 18.63c-9.99 19.56-26.63 38.51-62.01 38.51Z"/><path d="M242.26 13.58h215.09v226.41H242.26z"/><path class="cls-1" d="M362 141.85h-24.82l2.78-9.83c5.35-19.04 7.72-27.35 9.64-37.41 1.92 10.06 4.27 18.16 9.63 37.41l2.77 9.83Zm63.55 60.25L370.88 51.48h-42.17L274.06 202.1h44.83l8.16-26.58h45.07l8.16 26.58h45.28Z"/><path d="M470.93 13.58h215.09v226.41H470.93z"/><path class="cls-1" d="M600.75 101.67c0 11-5.49 17.15-19.35 17.15h-25.07V85.15h25.72c13.42 0 18.7 6.85 18.7 16.52Zm43.99 100.43-30.14-57.49c16.56-7.51 27.12-21.46 27.12-44.06 0-35.72-23.46-49.07-58.78-49.07h-67.37V202.1h40.76v-51.39H573l24.36 51.39h47.38Z"/><path d="M699.61 13.58H914.7v226.41H699.61z"/><path class="cls-1" d="M790.32 86.92v21.26h46.07v35.44h-46.07v58.47h-42.53V51.48h118.73v35.44h-76.2Z"/><path d="M928.28 13.58h215.09v226.41H928.28z"/><path class="cls-1" d="M1048.03 143.62h-24.82l2.78-9.83c5.35-19.02 7.7-27.36 9.62-37.41 1.94 10.05 4.29 18.15 9.64 37.41l2.78 9.83Zm63.56 60.25-54.67-150.62h-42.19l-54.67 150.62h42.79l8.7-28.35h48.1l8.7 28.35h43.22Z"/><path style="isolation:isolate;fill:#fff" d="M1156.95 13.58h215.09v226.41h-215.09z"/><path d="M1156.95 13.58v226.41h215.09V13.58h-215.09Zm204.9 216.22h-29.25l-42.74-61.3 51.85-72.72h-51.61l-9.15 14.46c-5.86 9.35-12.2 19.35-15.95 27.22-3.52-7.87-9.86-17.87-15.72-27.22l-9.15-14.46h-52.8l51.86 73.57-43.28 60.45h-28.76V23.77h194.71v206.04Zm-80.96 0h-34.05l1.24-1.72c6.1-9.35 12.21-20.25 15.96-28.11 3.99 8.08 9.85 18.76 15.72 28.11l1.12 1.72Z"/></svg>