<svg viewBox="0 0 36 36" fill="none" xmlns="http://www.w3.org/2000/svg"><path d="M23 19.98h-3.729v.032c-.385 1.547-2.048 2.678-3.956 2.678-2.66 0-4.674-2.012-4.674-4.673 0-2.678 2.013-4.707 4.674-4.707 1.873 0 3.554 1.098 3.921 2.561v.033H23v-.05C22.51 12.511 19.219 10 15.368 10 10.676 10 7 13.526 7 18.017c0 2.195.858 4.224 2.433 5.704C10.991 25.185 13.092 26 15.368 26c4.008 0 7.212-2.511 7.615-5.97l.017-.05Z" fill="#000E23"/><path d="M30 23c0 1.663-1.337 3-3 3s-3-1.337-3-3 1.337-3 3-3c1.646 0 3 1.354 3 3Z" fill="#E60E27"/></svg>