<svg viewBox="0 0 130 20" fill="none" xmlns="http://www.w3.org/2000/svg"><g clip-path="url(#a)"><path d="M13.909 13.621h-3.248v.03c-.336 1.411-1.77 2.442-3.432 2.442-2.318 0-4.057-1.835-4.057-4.262 0-2.442 1.739-4.292 4.057-4.292 1.632 0 3.096 1 3.401 2.336v.03h3.279v-.046C13.482 6.841 10.63 4.55 7.275 4.55 3.203 4.55 0 7.751 0 11.846c0 2.003.747 3.838 2.12 5.188 1.357 1.335 3.187 2.078 5.17 2.078 3.477 0 6.268-2.29 6.634-5.43l-.015-.06Zm13.909-6.947a7.31 7.31 0 0 0-5.185-2.124c-4.118 0-7.336 3.201-7.336 7.296 0 4.08 3.218 7.266 7.336 7.266 4.117 0 7.335-3.185 7.335-7.266a7.19 7.19 0 0 0-2.15-5.172Zm-5.185 9.45c-2.38 0-4.164-1.85-4.164-4.293 0-2.457 1.8-4.323 4.164-4.323 2.333 0 4.163 1.896 4.163 4.323 0 2.412-1.83 4.293-4.163 4.293Zm22.785-2.503h-3.249v.03c-.335 1.411-1.769 2.442-3.431 2.442-2.319 0-4.057-1.835-4.057-4.262 0-2.442 1.739-4.292 4.057-4.292 1.632 0 3.096 1 3.4 2.336v.03h3.28v-.046c-.427-3.018-3.28-5.309-6.635-5.309-4.087 0-7.274 3.201-7.274 7.296 0 2.003.747 3.838 2.12 5.188 1.357 1.335 3.187 2.078 5.17 2.078 3.477 0 6.268-2.29 6.634-5.43l-.015-.06Zm8.556-6.098c1.83 0 3.004 1.32 3.004 3.368v7.857h3.248V10.8c0-3.792-2.165-6.25-5.52-6.25a5.63 5.63 0 0 0-3.966 1.64l-.076.075V0h-3.157v18.748h3.218v-7.69c0-2.109 1.312-3.535 3.248-3.535ZM69.59 4.55c-4.01 0-7.274 3.337-7.274 7.433 0 4.065 3.08 7.129 7.168 7.129 3.31 0 6.024-1.911 6.74-4.748l.016-.045h-3.188l-.015.03c-.366 1.214-1.708 2.017-3.355 2.017-2.166 0-3.859-1.456-4.179-3.61v-.045h10.783v-.03c.076-.546.106-1.017.106-1.411 0-3.777-2.989-6.72-6.801-6.72Zm-3.873 5.506.015-.06c.64-1.669 2.12-2.7 3.843-2.7 1.83 0 3.325 1.168 3.477 2.715v.046h-7.335Zm18.606.228.015-.045-.015.045c-1.616-.334-3.004-.622-3.004-1.73 0-1.152 1.159-1.561 2.165-1.561 1.281 0 2.303.743 2.471 1.82v.03h3.157v-.045C88.837 6.173 86.687 4.55 83.5 4.55c-3.066 0-5.216 1.775-5.216 4.308 0 2.943 2.669 3.565 4.819 4.05 1.678.38 3.111.713 3.111 1.942 0 1.046-.945 1.729-2.425 1.729-1.525 0-2.592-.82-2.7-2.093v-.03h-3.08v.045c.229 2.851 2.44 4.626 5.78 4.626 3.264 0 5.552-1.896 5.552-4.626.046-3.17-2.76-3.747-5.018-4.217Z" fill="#000E23"/><path d="M114.23 4.55c-4.011 0-7.274 3.337-7.274 7.433 0 4.065 3.08 7.129 7.168 7.129 3.309 0 6.024-1.911 6.741-4.748l.015-.045h-3.188l-.015.03c-.366 1.214-1.708 2.017-3.355 2.017-2.166 0-3.859-1.456-4.179-3.61v-.045h10.783v-.03c.076-.546.106-1.032.106-1.411-.015-3.777-2.989-6.72-6.802-6.72Zm-3.873 5.506.015-.06c.64-1.669 2.12-2.7 3.843-2.7 1.83 0 3.325 1.168 3.477 2.715v.046h-7.335Zm17.538 8.692H130v-2.821h-1.708c-1.327 0-1.998-.698-1.998-2.063V7.72H130V4.915h-3.706V.955h-3.218v13.136c0 3.125 1.586 4.657 4.819 4.657ZM96.509 16.61a2.584 2.584 0 0 1-2.593 2.578 2.583 2.583 0 0 1-2.593-2.579 2.583 2.583 0 0 1 2.593-2.578 2.584 2.584 0 0 1 2.593 2.578ZM92.315 4.93h3.096v1.41c1.052-1.107 2.47-1.774 4.087-1.774 3.264 0 5.506 2.366 5.506 6.234v7.933h-3.173V10.89c0-1.942-1.113-3.413-3.065-3.413-1.907 0-3.294 1.38-3.294 3.58v.697h-3.157V4.93Z" fill="#E60E27"/></g><defs><clipPath id="a"><path fill="#fff" d="M0 0h130v19.173H0z"/></clipPath></defs></svg>