<svg xmlns="http://www.w3.org/2000/svg" fill="none" viewBox="0 0 146 128"><path fill="#BDD3F9" d="M73.604 107.389c-.484-.95-5.134-19.369-9.237-35.618-5.47-21.67-8.827-34.894-9.314-35.825-.331-.631-.74-1.415-1.493-1.88-.806-.497-1.806-.49-2.537-.483-5.09.04-11.157 2.327-17.083 6.436-5.578 3.866-10.17 8.758-12.594 13.421a.471.471 0 0 0 .214.641c.239.12.533.026.655-.21 4.616-8.87 18.21-19.25 28.818-19.335.791-.007 1.488.014 2.009.336.526.324.854.952 1.146 1.507.485.95 5.135 19.37 9.237 35.618 4.943 19.577 8.159 32.26 9.094 35.216l-36.824 4.971C30.222 98.134 22.59 77.021 17.742 61.15a.488.488 0 0 0-.606-.319.474.474 0 0 0-.326.593c4.896 16.025 12.626 37.39 18.113 51.453a.489.489 0 0 0 .456.307c.022 0 .044 0 .065-.005l37.795-5.101a.48.48 0 0 0 .368-.691l-.003.002Z"/><path fill="#fff" d="M61.617 56.887a12.332 12.332 0 0 0-1.072-.348c-1.063-.31-2.254-.657-2.809-1.781-.343.219-.745.4-1.2.471-.251.04-.5.06-.745.06a4.36 4.36 0 0 1-1.94-.448c-.522 2.18-2.282 2.896-4.062 3.432-.202.062-.26.12-.265.131-.09.231.482 1.174 1.037 2.084.76 1.25 1.79 2.947 2.873 5.343l3.93-.47 4.689-8.229-.434-.247-.002.002Z"/><path fill="#000E23" d="m62.956 56.546-.877-.5-.058-.028c-.392-.16-.801-.279-1.198-.393-1.071-.312-1.996-.581-2.303-1.51v-.003c.053-.055.105-.11.15-.162 1.116-1.262 1.678-3.063 1.58-5.068-.082-1.74-.608-3.378-1.187-5.04a.486.486 0 0 0-.58-.308c-6.33 1.56-7.793 1.615-8.075 1.603a.49.49 0 0 0-.604.167.47.47 0 0 0-.083.303c.18 2.374 1.342 5.635 2.342 7.495.239.446.55.832.916 1.15-.297 1.994-1.746 2.592-3.472 3.111-.467.14-.757.37-.889.7-.26.663.198 1.415 1.108 2.916.782 1.286 1.85 3.046 2.963 5.562a.488.488 0 0 0 .446.288c.02 0 .039 0 .058-.003l4.536-.543a.487.487 0 0 0 .365-.24l5.042-8.849a.47.47 0 0 0-.18-.643v-.005Zm-9.522 9.287c-1.083-2.398-2.113-4.092-2.873-5.342-.555-.913-1.127-1.856-1.037-2.084.005-.012.063-.072.265-.131 1.778-.536 3.538-1.253 4.061-3.433a4.334 4.334 0 0 0 1.94.448c.247 0 .495-.019.746-.06a3.175 3.175 0 0 0 1.2-.471c.555 1.124 1.746 1.472 2.81 1.782.36.105.735.214 1.07.347l.434.248-4.689 8.23-3.93.469.003-.003Zm4.85-21.267c.496 1.453.922 2.886.993 4.36.085 1.761-.392 3.324-1.344 4.4-.333.379-.876.853-1.553.96-1.444.231-2.802-.41-3.457-1.632-.882-1.638-1.892-4.404-2.177-6.588.974-.05 3.034-.405 7.538-1.505v.005Z"/><path fill="#fff" d="M56.38 54.288c.677-.107 1.217-.58 1.553-.96.952-1.076 1.43-2.639 1.344-4.399-.07-1.474-.5-2.908-.993-4.36-4.504 1.1-6.564 1.452-7.538 1.504.285 2.182 1.295 4.95 2.177 6.589.654 1.221 2.013 1.86 3.457 1.631v-.005Z"/><path fill="#000E23" d="M61.325 44.73c-.531.965-3.533.612-4.738 1.308-.64.369-1.631 1.122-2.369 1.024-.738-.098-1.142-.417-1.88-.322-.314.04-.652.165-.788.446-.1.205-.07.452.012.664.329.832 1.317 1.315 1.317 3.192 0 .345-.558 1.146-1.264 1.193-5.524.384-4.788-6.495-4.448-7.722.582-2.09 3.779-4.992 9.055-5.218 5.531-.238 5.263 5.14 5.103 5.433v.002Z"/><path fill="#000E23" d="M56.984 50.973a.733.733 0 0 1-.102-.007l-.538-.076a.237.237 0 0 1-.205-.27.241.241 0 0 1 .275-.2l.538.077a.221.221 0 0 0 .19-.065.205.205 0 0 0 .054-.188l-.645-3.056a.239.239 0 0 1 .19-.28.244.244 0 0 1 .287.185l.645 3.056a.68.68 0 0 1-.178.612.719.719 0 0 1-.513.217l.002-.005Zm-1.767-2.526c.134-.027.202-.241.152-.478-.05-.237-.2-.407-.334-.38-.134.027-.202.241-.152.478.05.237.2.407.334.38Zm2.735-.552c.134-.027.203-.241.153-.478-.05-.237-.2-.407-.334-.38-.135.027-.203.241-.153.478.05.237.2.407.334.38Zm-.815 5.162c.312 0 .565-.317.565-.707 0-.391-.253-.708-.565-.708-.312 0-.565.317-.565.708 0 .39.253.707.565.707Zm16.787 49.354c1.794 5.302-2.74 11.59-12.695 12.217-8.445.528-10.176.74-25.453-1.489-1.076-4.068-3.484-9.556-4.95-13.712-.034-.098 9.724-4.824 14.384-6.155 4.492-1.284 10.663-1.17 14.987.584 4.592 1.862 12.891 6.088 13.727 8.558v-.003Z"/><path fill="#E60E27" d="M94.513 46.793c9.703 0 17.568-7.695 17.568-17.188 0-9.492-7.865-17.187-17.568-17.187-9.702 0-17.568 7.695-17.568 17.187 0 9.493 7.866 17.188 17.568 17.188Z"/><path fill="#F7CBCB" d="M130.375 47.56c0 5.154-4.777 7.586-10.043 7.586-5.266 0-9.027-2.806-9.027-7.96s6.047-8.21 11.316-8.21c5.268 0 7.754 3.427 7.754 8.581v.003Z"/><path fill="#000E23" d="M117.428 55.198c-1.992 0-3.75-.379-5.228-1.126-.263-.07-1.468-.055-2.351-.046-2.36.027-3.041 0-3.353-.25a.565.565 0 0 1-.217-.519c.059-.445.565-.69 1.705-1.203.37-.166.942-.424 1.227-.602-.86-1.308-1.295-2.885-1.295-4.688 0-2.518 1.385-4.802 3.9-6.433 2.206-1.432 5.086-2.251 7.902-2.251 5.24 0 8.242 3.301 8.242 9.058s-5.288 8.063-10.53 8.063l-.002-.003Zm-6.481-2.132c.99 0 1.451.034 1.682.15 1.344.684 2.958 1.03 4.799 1.03 4.409 0 9.555-1.863 9.555-7.11 0-5.248-2.58-8.106-7.267-8.106-6.688 0-10.829 4.014-10.829 7.734 0 1.72.433 3.197 1.29 4.387.107.15.141.332.09.508-.124.452-.73.743-1.879 1.26a21.08 21.08 0 0 0-.351.16c.565.009 1.257.002 1.799-.003.429-.005.797-.007 1.108-.007l.003-.003Zm1.234.996h.002-.002Z"/><path fill="#000E23" d="M115.472 46.185a.494.494 0 0 0-.684.074.467.467 0 0 0 .076.67.302.302 0 0 1 .102.152.484.484 0 0 0 .599.333.476.476 0 0 0 .341-.586 1.253 1.253 0 0 0-.431-.643h-.003Zm1.933-.235a.494.494 0 0 0-.684.073.467.467 0 0 0 .075.67.294.294 0 0 1 .103.154.483.483 0 0 0 .598.334.476.476 0 0 0 .341-.586 1.257 1.257 0 0 0-.431-.643l-.002-.002Zm1.934-.236a.494.494 0 0 0-.684.074.47.47 0 0 0 .075.669.305.305 0 0 1 .102.155.485.485 0 0 0 .599.333.476.476 0 0 0 .341-.586 1.254 1.254 0 0 0-.431-.643l-.002-.002Zm1.935-.238a.494.494 0 0 0-.684.074.468.468 0 0 0 .075.669.298.298 0 0 1 .103.152.484.484 0 0 0 .599.334.474.474 0 0 0 .34-.586 1.248 1.248 0 0 0-.431-.643h-.002Zm1.933-.236a.494.494 0 0 0-.684.074.467.467 0 0 0 .075.669.287.287 0 0 1 .102.155.485.485 0 0 0 .599.333.476.476 0 0 0 .341-.586 1.263 1.263 0 0 0-.431-.643l-.002-.002Zm2.364.407a1.257 1.257 0 0 0-.431-.643.494.494 0 0 0-.684.074.467.467 0 0 0 .076.67.299.299 0 0 1 .102.154.484.484 0 0 0 .599.333.477.477 0 0 0 .341-.585l-.003-.003Z"/><path fill="#fff" d="M82.058 84.674c5.023-6.086 2.062-17.571.799-22.476-.417-1.612-.546-2.138-.482-2.448 0-.01.004-.019.007-.029l.5-1.862a.55.55 0 0 1 .048-.12c1.217-2.052 1.273-4.594.146-6.635-.049-.086-.093-.164-.136-.233-.125-.196-.446-.244-.957-.143a3.067 3.067 0 0 0-1.963 1.305 3.139 3.139 0 0 0-.465 2.4c0 .013.005.022.005.034l.767 5.505a.26.26 0 0 0 .005.042l.611 13.594a.482.482 0 0 1-.684.454l-6.381 14.065c.275.079 4.392 1.132 8.178-3.456l.002.003Z"/><path fill="#000E23" d="M83.801 61.965c-.234-.903-.475-1.839-.47-2.025l.475-1.776c1.354-2.327 1.405-5.2.127-7.51a5.546 5.546 0 0 0-.17-.289c-.364-.564-1.028-.755-1.973-.569a4.031 4.031 0 0 0-2.583 1.715 4.08 4.08 0 0 0-.609 3.104l.762 5.466.612 13.572c.007.186.126.34.29.412a.481.481 0 0 0 .684-.455l-.612-13.593c0-.015 0-.029-.005-.043l-.766-5.505-.005-.033a3.139 3.139 0 0 1 .465-2.4 3.067 3.067 0 0 1 1.962-1.306c.509-.1.83-.052.957.143.044.069.09.145.136.233 1.127 2.041 1.071 4.583-.146 6.636a.423.423 0 0 0-.049.12l-.499 1.862-.007.028c-.063.31.066.834.482 2.449 1.264 4.904 4.224 16.387-.799 22.475-3.785 4.587-7.902 3.535-8.177 3.456-.01-.002-.015-.005-.015-.005a.492.492 0 0 0-.635.262.474.474 0 0 0 .267.622c.017.007.694.217 1.76.217 1.831 0 4.809-.62 7.558-3.952 5.329-6.457 2.286-18.264.986-23.306l-.003-.005Z"/><path fill="#F7CBCB" d="M42.294 94.299s5.422.262 12.777 2.415c7.355 2.153 19.355 6.957 19.355 6.957-.663-3.353-.35-6.883-2.433-10.49-3.64-6.309-1.465-8.672-2.298-10.213-.832-1.54-2.63-11.094-2.63-11.094s.48 5.63 1.68 8.681c.517 1.31 4.53 8.601 4.53 8.601l8.019-15.6c-4.865-6.922-6.252-11.329-9.85-14.764-2.681-2.558-5.7-3.241-9.386-2.515-.993 1.465-.713 3.59-6.625 4.238-3.464.378-3.318-3.254-5.249-3.342-.805-.036-6.853 1.307-8.024 2.296-3.47 2.932-8.246 11.175-10.206 15.144l5.84 9.337 5.133.147-.628 10.202h-.005Z"/><path fill="#fff" d="m31.632 74.922-9.5-14.962a.461.461 0 0 1-.06-.148l-.212-.924c-.093-.455-.463-.853-1.04-1.134-1.051-.512-3.08-.731-5.329.333-1.134.539-1.529 1.122-1.48 1.303.056.207.862.698 3.883.5l2.147-.252c.66-.064 1.254.336 1.42.955l2.347 8.713c.187.49.375.998.567 1.522.511 1.388 1.04 2.825 1.702 4.24 1.485 3.167 4.126 5.604 7.437 6.857l3.52 1.334-4.754-8.17a.493.493 0 0 1-.655-.162l.007-.005Z"/><path fill="#000E23" d="m37.597 83.466-.558-.212-3.52-1.334c-3.311-1.253-5.953-3.69-7.438-6.857-.662-1.413-1.19-2.849-1.702-4.24-.192-.521-.38-1.031-.567-1.522l-2.347-8.713a1.315 1.315 0 0 0-1.42-.955l-2.147.253c-3.02.197-3.827-.293-3.883-.5-.049-.181.346-.765 1.48-1.303 2.252-1.065 4.278-.846 5.33-.334.58.281.947.681 1.04 1.134l.211.924a.465.465 0 0 0 .061.148l9.5 14.963a.491.491 0 0 0 .655.161l.017-.007a.468.468 0 0 0 .156-.655l-9.456-14.896-.19-.836c-.151-.738-.706-1.374-1.558-1.79-1.646-.801-4.073-.67-6.187.33-1.134.538-2.257 1.45-1.998 2.404.275 1.012 1.877 1.405 4.903 1.207h.024l2.152-.255a.347.347 0 0 1 .373.253l2.354 8.734.015.045c.19.493.377 1.005.572 1.532.518 1.407 1.054 2.863 1.733 4.313 1.592 3.394 4.421 6.005 7.971 7.348l4.078 1.544a.491.491 0 0 0 .63-.271.473.473 0 0 0-.277-.618l-.007.005Z"/><path fill="#000E23" d="M38.264 83.914c-2.573 1.727 3.353-5.49 2.927-8.96 0 0 2.488 5.325-2.927 8.96Zm31.044-2.675c-.134-.281-3.36-8.508-2.554-11.407-1.748 7.853 2.554 11.407 2.554 11.407Z" opacity=".21"/><path fill="#000E23" d="M12.918 115.821a.486.486 0 0 1-.485-.429.478.478 0 0 1 .436-.521c3.226-.322 7.372-.829 11.384-1.318 4.015-.49 8.168-.995 11.406-1.319a.485.485 0 0 1 .533.426.48.48 0 0 1-.435.522c-3.226.321-7.372.829-11.385 1.317-4.014.491-8.168.996-11.406 1.32l-.05.002h.002Zm57.015-7.348a.483.483 0 0 1-.487-.465.48.48 0 0 1 .475-.488 85.771 85.771 0 0 0 24.624-4.256c.255-.084.53.05.616.3a.474.474 0 0 1-.307.603 86.743 86.743 0 0 1-24.908 4.306h-.013Z"/><path fill="#fff" d="m130.533 87.275.137-.012 1.451-.941c.053-.15.141-.284.248-.393-.051-.305-.27-.579-.511-.853-2.35-2.667-4.911-4.94-7.73-7.098.789 3.49 1.414 6.793 1.831 9.568 1.526-.067 3.053-.155 4.574-.274v.003Zm-37.423-2.12c-.323.4-.479.748-.44.976.453-.035.908.086 1.29.365.064.045.127.093.19.14 1.135.172 2.286.279 3.435.355l-1.107-5.259c-1.203 1.029-2.345 2.158-3.367 3.423Z"/><path fill="#BDD3F9" d="m96.478 81.732 1.108 5.26.204.968.338 1.604a312.062 312.062 0 0 1 7.789 5.945c.031.026.07.054.107.088l6.252-3.73c.258-.155.648-.389 1.093-.322.411.06.699.353.889.546 1.027 1.04 2.059 2.089 3.089 3.134.726-.21 1.417-.412 1.887-.557l7.08-4.588a5.043 5.043 0 0 1-.056-.34 66.477 66.477 0 0 0-.302-2.194c-.416-2.775-1.042-6.078-1.831-9.568-.109-.48-.219-.962-.333-1.45-.928-3.933-2.05-8.03-3.304-11.81-.122-.369-.173-.817-.305-1.052-.102-.184-.189-.17-.275-.181-8.102-1.06-17.638 1.557-26.651 3.91l.92 3.428 2.07 9.832.226 1.075.005.002Zm4.781-3.492a.486.486 0 0 1-.477-.38.478.478 0 0 1 .38-.563 102.357 102.357 0 0 1 17.833-1.95.48.48 0 0 1 .497.466.481.481 0 0 1-.477.486c-5.919.124-11.861.774-17.661 1.932a.437.437 0 0 1-.097.01h.002Zm-1.005 5.883 19.993-2.686a.486.486 0 0 1 .548.407c.036.26-.149.5-.417.536l-19.993 2.687c-.022.002-.043.004-.065.004a.486.486 0 0 1-.482-.412.477.477 0 0 1 .416-.536Zm.287-3.427a122.983 122.983 0 0 1 17.658-2.708.483.483 0 0 1 .526.436.48.48 0 0 1-.445.514c-5.88.467-11.772 1.37-17.515 2.684a.487.487 0 0 1-.587-.355.477.477 0 0 1 .363-.571Zm-.927-6.884a169.783 169.783 0 0 1 18.824-2.786.486.486 0 0 1 .531.43.483.483 0 0 1-.441.52c-6.264.57-12.56 1.5-18.712 2.77a.486.486 0 0 1-.577-.37.476.476 0 0 1 .375-.564Z"/><path fill="#000E23" d="M99.71 74.753a.46.46 0 0 0 .1-.01 168.748 168.748 0 0 1 18.713-2.77.48.48 0 0 0 .44-.519.485.485 0 0 0-.53-.43 169.334 169.334 0 0 0-18.825 2.786.476.476 0 0 0-.375.564c.05.224.251.38.478.38Zm19.305 1.544a.482.482 0 0 0 .477-.486.482.482 0 0 0-.496-.467c-5.977.126-11.979.784-17.834 1.95a.478.478 0 0 0-.38.563.485.485 0 0 0 .575.371 101.301 101.301 0 0 1 17.66-1.931h-.002Zm-18.366 5.337a.628.628 0 0 0 .112-.011 121.678 121.678 0 0 1 17.514-2.685.48.48 0 0 0 .446-.514.484.484 0 0 0-.526-.436 122.67 122.67 0 0 0-17.658 2.708.475.475 0 0 0-.363.572.486.486 0 0 0 .475.366Zm-.813 3.026a.486.486 0 0 0 .482.411c.022 0 .043 0 .065-.004l19.993-2.687a.48.48 0 0 0 .417-.536.487.487 0 0 0-.548-.407l-19.993 2.686a.479.479 0 0 0-.416.536Z"/><path fill="#fff" d="M91.054 105.884c2.98-3.013 6.33-5.466 9.904-7.258.716-.433 1.431-.862 2.14-1.283l2.045-1.22c-3.956-3.125-7.978-6.093-11.764-8.865a.938.938 0 0 0-.93-.105.898.898 0 0 0-.55.736c-.434 4.052-1.417 13.446-1.819 18.929.321-.317.648-.627.979-.934h-.005Zm29.337-7.57c1.616 1.241 3.021 2.771 4.233 4.088.884.962 1.77 1.936 2.656 2.913l4.39 4.466c.657-4.533 1.544-18.529 1.025-22.64a.465.465 0 0 1-.1.02l-14.067 9.11-.088.06 1.953 1.981-.002.002Zm10.814 12.369c-5.853-5.962-11.788-11.99-17.648-17.93-.088-.088-.249-.253-.334-.265-.095-.014-.321.122-.443.193l-9.179 5.474c-2.614 1.56-5.317 3.17-7.837 5.047a49.315 49.315 0 0 0-5.46 4.737c2.72.612 11.635 2.568 19.791 3.797 8.165 1.229 18.162-.483 21.108-1.053h.002Z"/><path fill="#000E23" d="M132.503 110.631c.701-4.102 1.94-21.91.927-24.674a.451.451 0 0 0-.097-.154c-.085-.558-.421-.986-.738-1.346-2.663-3.023-5.728-5.628-8.801-7.924.114.485.226.969.334 1.45 2.819 2.158 5.38 4.43 7.729 7.098.241.274.461.548.512.853a1.12 1.12 0 0 0-.249.393l-1.451.94c-.043.005-.09.008-.136.012-1.522.12-3.048.208-4.575.274.049.324.095.643.139.95a128.74 128.74 0 0 0 2.912-.159l-2.693 1.744-7.08 4.587-1.248.807a3.47 3.47 0 0 0-.232.162l-.409-.414-3.089-3.135c-.19-.192-.48-.486-.889-.545-.445-.067-.835.167-1.093.322l-6.252 3.73c-.039-.034-.076-.062-.107-.089a309.988 309.988 0 0 0-7.788-5.945 631.654 631.654 0 0 0-2.398-1.77c.686.07 1.375.124 2.06.167l-.205-.97a41.006 41.006 0 0 1-3.436-.354c-.063-.045-.126-.093-.19-.14a1.922 1.922 0 0 0-1.29-.365c-.039-.229.117-.576.44-.977 1.023-1.264 2.165-2.393 3.368-3.422l-.227-1.074a27.752 27.752 0 0 0-3.905 3.903c-.57.706-.767 1.339-.596 1.887a1.821 1.821 0 0 0-.823 1.34c-.465 4.348-1.563 14.837-1.899 20.082l-.017.019a.468.468 0 0 0 .175.767.49.49 0 0 0 .304.105.427.427 0 0 0 .08-.01c1.863.424 11.563 2.599 20.381 3.926 2.118.319 4.353.445 6.559.445 6.69 0 13.103-1.153 15.116-1.548a.496.496 0 0 0 .363.069.494.494 0 0 0 .314-.212.484.484 0 0 0 .334-.319.467.467 0 0 0-.13-.481l-.004-.005Zm-22.406 1.105c-8.156-1.229-17.074-3.184-19.79-3.797a49.096 49.096 0 0 1 5.46-4.737c2.52-1.875 5.222-3.487 7.837-5.047l9.178-5.474c.122-.071.346-.207.443-.193.086.012.246.177.334.265 5.86 5.94 11.796 11.969 17.648 17.93-2.945.57-12.944 2.282-21.108 1.053h-.002ZM91.896 87.889a.894.894 0 0 1 .55-.736.938.938 0 0 1 .93.105c3.786 2.772 7.81 5.738 11.764 8.865l-2.045 1.22c-.708.421-1.422.85-2.14 1.283-3.574 1.792-6.924 4.245-9.904 7.258-.329.305-.655.617-.979.934.402-5.483 1.386-14.877 1.82-18.929h.004Zm40.697-.729a.471.471 0 0 0 .1-.019c.518 4.111-.368 18.109-1.025 22.64a3616.87 3616.87 0 0 0-4.39-4.466c-.886-.977-1.77-1.949-2.656-2.913-1.21-1.32-2.615-2.847-4.234-4.088l-1.952-1.981.087-.06 14.067-9.11.003-.003Z"/><path fill="#fff" d="M79.79 50.39c-.253.185-.51.378-.778.578-.397.298-.806.605-1.244.92.983 2.467 2.008 5.006 3.289 7.371.343.634.754 1.356 1.322 1.899a4.207 4.207 0 0 0 3.009 1.145c.158-.004.382-.023.499-.116.068-.055.124-.162.16-.3.161-.617-.16-1.318-.503-1.982a84.309 84.309 0 0 0-5.753-9.518v.002Z"/><path fill="#fff" d="m90.914 48.079-.063-.05c-1.892-1.53-3.557-3.954-4.684-6.831-1.183-3.016-1.507-6.1-.96-8.615l-4.04 3.927c-1.49 1.37-5.393 4.588-9.46 4.862h-.011c0 .007 0 .011-.003.019a7.76 7.76 0 0 0 .212 4.959 7.982 7.982 0 0 0 3.2 3.851.47.47 0 0 1 .148.657.488.488 0 0 1-.412.22.49.49 0 0 1-.26-.074 8.934 8.934 0 0 1-3.587-4.319 8.726 8.726 0 0 1-.345-5.151c-.738.19-1.261.524-1.553 1.01-.563.928-.353 2.531.586 4.51l1.12 2.361c.665 1.4 1.755 2.42 2.92 2.725.956.252 1.94.036 2.92-.638a46.304 46.304 0 0 0 1.773-1.291c1.853-1.394 3.452-2.596 5.926-2.747 1.587-.095 4.297.248 6.573.61v.005Zm8.335-3.482a13.398 13.398 0 0 0 .321-2.315 11.931 11.931 0 0 1-1.731-.822.47.47 0 0 1-.17-.653.494.494 0 0 1 .667-.167c.401.234.823.441 1.256.622a17.39 17.39 0 0 0-.25-2.75l-1.756.261c-.025.005-.049.005-.076.005a.483.483 0 0 1-.48-.405.478.478 0 0 1 .407-.543l1.717-.257a17.214 17.214 0 0 0-.76-2.487 32.17 32.17 0 0 0-.428-1.043c-.39.474-.767.967-1.135 1.481a.49.49 0 0 1-.68.12.471.471 0 0 1-.123-.663c.477-.674.973-1.31 1.49-1.915-2.187-4.525-4.646-5.75-8.383-4.361-1.044.388-1.891 1.241-2.454 2.465a7.674 7.674 0 0 0-.511 1.567 8.653 8.653 0 0 1 3.513 2.13c.022-.01.044-.024.068-.033.857-.348 1.909-.036 2.88.862.341.314.66.688.952 1.112a.37.37 0 0 1 .025.04l.728 1.34c.007.013.014.025.019.04 1.069 2.517.72 4.97-.794 5.585a.123.123 0 0 1-.031.01 6.299 6.299 0 0 1-1.468 3.841.308.308 0 0 1-.042.039c1.546 1.06 3.114 1.367 4.473.857.803-.302 1.477-.953 2.006-1.936a.486.486 0 0 1 .594-.224l.46-1.25a.472.472 0 0 1-.31-.556l.006.003Z"/><path fill="#fff" d="M88.962 40.421c-.49-1.152-.699-2.348-.591-3.363.068-.645.265-1.179.564-1.577a7.648 7.648 0 0 0-2.921-1.788c-.258 2.16.1 4.713 1.061 7.167 1.028 2.62 2.513 4.832 4.195 6.269a.509.509 0 0 1 .044-.065 5.346 5.346 0 0 0 1.24-3.13c-1.313-.176-2.752-1.521-3.594-3.51l.002-.003Z"/><path fill="#000E23" d="M98.503 46.626c-.528.984-1.202 1.636-2.006 1.936-1.358.51-2.926.203-4.472-.857a.312.312 0 0 0 .041-.038 6.308 6.308 0 0 0 1.468-3.842.123.123 0 0 1 .032-.01c1.514-.614 1.862-3.067.794-5.585a.21.21 0 0 0-.02-.04l-.728-1.34-.024-.04a6.51 6.51 0 0 0-.952-1.112c-.971-.895-2.02-1.21-2.88-.862-.025.01-.044.024-.068.033a8.653 8.653 0 0 0-3.514-2.13 7.824 7.824 0 0 1 .512-1.566c.56-1.225 1.41-2.077 2.454-2.466 3.737-1.388 6.196-.164 8.382 4.362.231-.272.465-.536.704-.794-1.853-3.72-4.492-6.295-9.432-4.46h-.005c-.005 0-.007.004-.012.004-1.215.457-2.2 1.403-2.865 2.737l-5.34 5.19-.07.064c-1.415 1.3-5.105 4.352-8.857 4.604-1.653.112-2.793.662-3.382 1.639-.935 1.548-.221 3.79.54 5.397l1.12 2.36c.797 1.677 2.09 2.861 3.55 3.245.339.088.682.133 1.025.133.82 0 1.65-.253 2.45-.745.968 2.424 1.981 4.91 3.247 7.255.378.695.835 1.493 1.5 2.134.932.898 2.252 1.422 3.562 1.422.053 0 .11 0 .163-.003.302-.01.742-.054 1.086-.336.23-.188.394-.454.484-.797.246-.937-.17-1.858-.58-2.65a85.288 85.288 0 0 0-5.83-9.643c1.164-.777 2.31-1.322 3.822-1.415 2.186-.133 6.837.655 9.054 1.065a5.57 5.57 0 0 0 1.69.274 4.82 4.82 0 0 0 1.7-.308c1.03-.386 1.876-1.188 2.52-2.384a.471.471 0 0 0-.205-.643c-.02-.01-.042-.017-.064-.024a.49.49 0 0 0-.594.224v.012ZM86.046 61.889c-.037.138-.093.245-.161.3-.115.093-.341.112-.5.117a4.207 4.207 0 0 1-3.008-1.146c-.565-.543-.98-1.265-1.322-1.898-1.279-2.365-2.304-4.904-3.29-7.372.436-.315.845-.62 1.245-.92.267-.2.525-.392.779-.578a84.34 84.34 0 0 1 5.752 9.517c.344.665.665 1.365.505 1.982v-.002Zm-7.628-11.676a52.05 52.05 0 0 1-1.773 1.291c-.98.674-1.964.888-2.921.638-1.164-.305-2.254-1.324-2.92-2.725l-1.119-2.36c-.94-1.98-1.147-3.582-.587-4.511.292-.484.816-.82 1.553-1.01a8.707 8.707 0 0 0 .346 5.152 8.934 8.934 0 0 0 3.586 4.318.497.497 0 0 0 .672-.145.47.47 0 0 0-.148-.657 7.956 7.956 0 0 1-3.2-3.852 7.76 7.76 0 0 1-.211-4.959c0-.007 0-.012.002-.019h.013c4.065-.272 7.968-3.49 9.458-4.861l4.041-3.928c-.55 2.515-.223 5.597.96 8.615 1.127 2.875 2.792 5.302 4.684 6.831.022.017.041.034.063.05-2.276-.362-4.986-.705-6.573-.61-2.471.15-4.073 1.353-5.926 2.747v-.005Zm12.855-3.09c-1.683-1.433-3.168-3.646-4.195-6.268-.962-2.451-1.32-5.005-1.062-7.167a7.668 7.668 0 0 1 2.922 1.789c-.3.397-.497.93-.565 1.576-.11 1.015.102 2.21.592 3.364.842 1.988 2.28 3.334 3.593 3.51a5.363 5.363 0 0 1-1.24 3.13.38.38 0 0 0-.043.064l-.002.003Zm1.918-4.189h-.005a.478.478 0 0 0-.421.067c-1.015-.05-2.272-1.458-2.904-2.949-.429-1.01-.614-2.039-.522-2.899.05-.45.173-.817.356-1.076h.02a.482.482 0 0 0 .477-.386.942.942 0 0 1 .287-.048c.436 0 .969.26 1.49.739.282.26.55.571.796.929l.706 1.295c.716 1.706.78 3.892-.275 4.321l-.005.007Z"/><path fill="#000E23" d="M97.968 34.045c.143.334.287.679.428 1.043.314.8.567 1.639.76 2.487l.964-.145a18.322 18.322 0 0 0-.813-2.685 36.114 36.114 0 0 0-.636-1.524c-.238.267-.472.54-.703.822v.002Zm1.376 4.464c.158.922.24 1.846.25 2.75.32.134.643.253.974.358a18.226 18.226 0 0 0-.263-3.254l-.961.143v.003Zm.228 3.773a13.723 13.723 0 0 1-.321 2.315.474.474 0 0 0 .309.555.488.488 0 0 0 .638-.338c.027-.115.053-.23.078-.346a14.19 14.19 0 0 0 .253-1.863 12.726 12.726 0 0 1-.954-.321l-.003-.002Z"/><path fill="#fff" d="m93.466 38.616-.706-1.296a5.48 5.48 0 0 0-.796-.929c-.52-.48-1.052-.738-1.49-.738a.942.942 0 0 0-.287.048.464.464 0 0 1-.163.273.488.488 0 0 1-.314.112h-.02c-.182.26-.309.627-.355 1.077-.093.86.092 1.889.52 2.899.634 1.488 1.89 2.898 2.905 2.949a.505.505 0 0 1 .258-.089.53.53 0 0 1 .163.022h.005c1.057-.429.994-2.616.275-4.32l.005-.008Z"/><path fill="#BDD3F9" d="M97.522 33.07a27.58 27.58 0 0 0-1.49 1.916.469.469 0 0 0 .124.662.494.494 0 0 0 .68-.119 25.25 25.25 0 0 1 1.134-1.482c.231-.28.465-.554.703-.821 1.198-1.341 2.493-2.492 3.869-3.43a.468.468 0 0 0 .122-.662.493.493 0 0 0-.677-.12 21.995 21.995 0 0 0-3.757 3.268 25.18 25.18 0 0 0-.703.794l-.005-.005Zm1.634 4.503-1.716.257a.478.478 0 0 0-.407.543.483.483 0 0 0 .48.405c.024 0 .048 0 .075-.005l1.756-.262.961-.143 2.34-.35a.479.479 0 0 0 .407-.543.486.486 0 0 0-.556-.398l-2.378.358-.964.145.002-.007Zm5.195 4.577a11.49 11.49 0 0 1-6.016-1.512.493.493 0 0 0-.667.167.471.471 0 0 0 .17.653c.551.319 1.13.593 1.732.821a12.48 12.48 0 0 0 4.443.826c.122 0 .246 0 .368-.004a.485.485 0 0 0 .472-.49.484.484 0 0 0-.502-.463v.003Z"/></svg>